<svg id="Capa_1" enable-background="new 0 0 512 512" height="512" viewBox="0 0 512 512" width="512" xmlns="http://www.w3.org/2000/svg"><g><g><path d="m256 0c-140.7 0-256 115.3-256 256s115.3 256 256 256 256-115.3 256-256-115.3-256-256-256z" fill="#e5f3ff"/></g><path d="m512 256c0 140.7-115.3 256-256 256v-512c140.7 0 256 115.3 256 256z" fill="#d9e5ff"/><g><path d="m181 391h30v30h-30z" fill="#4d5e80"/></g><g><path d="m241 391h30v30h-30z" fill="#4d5e80"/></g><g><path d="m301 391h30v30h-30z" fill="#3d4566"/></g><path d="m393.82 118.18c-35.31-35.31-84.06-57.18-137.82-57.18l-30 31.184 30 28.816c37.28 0 71.03 15.11 95.46 39.54l23.198 6.802z" fill="#ffbe40"/><path d="m256 391h15v30h-15z" fill="#3d4566"/><path d="m391 256 28.737 30 31.263-30c0-53.76-21.87-102.51-57.18-137.82l-42.36 42.36c24.43 24.43 39.54 58.18 39.54 95.46z" fill="#ff7f66"/><path d="m339.837 361.048 43.385 43.385 10.605-10.605c36.87-36.871 57.173-85.811 57.173-137.828h-60c0 42.7-20.217 80.31-51.163 105.048z" fill="#f24949"/><path d="m256 121v-60c-53.76 0-102.51 21.87-137.82 57.18l10.241 40.241 32.119 2.119c24.43-24.43 58.182-39.54 95.46-39.54z" fill="#ffdf40"/><path d="m160.54 160.54-42.36-42.36c-35.31 35.31-57.18 84.06-57.18 137.82l30.474 30 29.526-30c0-37.28 15.11-71.03 39.54-95.46z" fill="#69f"/><path d="m128.778 404.433 43.385-43.385c-30.946-24.738-51.163-62.348-51.163-105.048h-60c0 52.017 20.303 100.957 57.173 137.827z" fill="#80bfff"/><g><path d="m241 181h30v75h-30z" fill="#ff7f66"/></g><path d="m256 181h15v75h-15z" fill="#f24949"/><g><path d="m256 241c-24.901 0-45 20.099-45 45s20.099 45 45 45 45-20.099 45-45-20.099-45-45-45z" fill="#4d5e80"/></g><path d="m301 286c0 24.901-20.099 45-45 45v-90c24.901 0 45 20.099 45 45z" fill="#3d4566"/></g></svg>